<svg xmlns="http://www.w3.org/2000/svg" width="25.82" height="20.49" viewBox="0 0 25.82 20.49">
  <title>basket</title>
  <g id="Слой_2" data-name="Слой 2">
    <g id="Layer_1" data-name="Layer 1">
      <g>
        <path d="M25.82,5.52H9.26L7.92,0H4.2V.79H7.3l3.84,15.85a2,2,0,1,0,2.12.7h5.53a2,2,0,0,0-.4,1.18,2,2,0,1,0,2-2H11.93L11.55,15H22.62Zm-12.95,13a1.18,1.18,0,1,1-1.18-1.18A1.19,1.19,0,0,1,12.87,18.52Zm8.67,0a1.18,1.18,0,1,1-1.18-1.18A1.19,1.19,0,0,1,21.54,18.52ZM11.36,14.19,9.45,6.31H24.72l-2.67,7.88Z"/>
        <g>
          <rect y="6.81" width="5.97" height="1"/>
          <rect x="1.22" y="9.64" width="5.97" height="1"/>
          <rect x="1.98" y="12.47" width="5.97" height="1"/>
        </g>
      </g>
    </g>
  </g>
</svg>
