<svg xmlns="http://www.w3.org/2000/svg" width="20.09" height="18.97" viewBox="0 0 20.09 18.97">
  <defs>
    <style>
      .cls-1 {
        fill: none;
        stroke: #c2c4c5;
        stroke-miterlimit: 10;
      }
    </style>
  </defs>
  <title>block</title>
  <g id="Слой_2" data-name="Слой 2">
    <g id="Layer_1" data-name="Layer 1">
      <g>
        <path class="cls-1" d="M10.43,13.75H2A1.51,1.51,0,0,1,.5,12.24V2A1.51,1.51,0,0,1,2,.5H18.08A1.51,1.51,0,0,1,19.59,2V12.24a1.52,1.52,0,0,1-1.51,1.51H17.4"/>
        <line class="cls-1" x1="2.62" y1="11.44" x2="4.32" y2="11.44"/>
        <line class="cls-1" x1="6.39" y1="11.44" x2="8.5" y2="11.44"/>
        <polygon class="cls-1" points="19.59 3.65 19.59 6.1 0.5 6.1 0.5 3.65 19.59 3.65 19.59 3.65"/>
        <path class="cls-1" d="M11.17,11.93h5.66a.53.53,0,0,1,.52.52v4.28a1.74,1.74,0,0,1-1.74,1.74H12.38a1.74,1.74,0,0,1-1.73-1.74V12.45a.52.52,0,0,1,.52-.52Z"/>
        <path class="cls-1" d="M11.77,11.85v-1.6a1.87,1.87,0,0,1,1.87-1.87h.72a1.88,1.88,0,0,1,1.87,1.87v1.6"/>
        <path class="cls-1" d="M14,14a.48.48,0,0,1,0,1,.48.48,0,1,1,0-1Z"/>
        <line class="cls-1" x1="14" y1="16.32" x2="14" y2="14.63"/>
      </g>
    </g>
  </g>
</svg>
