<svg xmlns="http://www.w3.org/2000/svg" width="40" height="40" viewBox="0 0 40 40">
  <defs>
    <style>
      .cls-1 {
        fill: #fff;
      }

      .cls-2 {
        fill: #e9e7a1;
      }

      .cls-3 {
        fill: #333;
      }
    </style>
  </defs>
  <title>button-heart</title>
  <g id="Слой_2" data-name="Слой 2">
    <g id="Layer_1" data-name="Layer 1">
      <g>
        <g>
          <circle class="cls-1" cx="20" cy="20" r="19.5"/>
          <path class="cls-2" d="M20,1A19,19,0,1,1,1,20,19,19,0,0,1,20,1m0-1A20,20,0,1,0,40,20,20,20,0,0,0,20,0Z"/>
        </g>
        <path class="cls-3" d="M15.23,11.86a4.33,4.33,0,0,1,3.26,1.57c.14.16.27.35.42.55l.24.34.8-.6-.76.66.89,1.15.79-1.24.05-.07a5.07,5.07,0,0,1,2.12-2,4.06,4.06,0,0,1,1.78-.4h.37A4.05,4.05,0,0,1,29,15.38a7.22,7.22,0,0,1,0,1.47,7.2,7.2,0,0,1-.3,1.79A6.58,6.58,0,0,1,27.35,21a19.4,19.4,0,0,1-2.18,2.17l-1.75,1.53-2.15,1.89c-.43.38-.85.77-1.27,1.16l-.42-.39L15.72,24l-.24-.21c-.82-.72-1.59-1.4-2.31-2.15a8.41,8.41,0,0,1-1.4-1.89,6.44,6.44,0,0,1-.65-2A9,9,0,0,1,11,15.85,4,4,0,0,1,14.1,12a5.06,5.06,0,0,1,1.13-.14m0-1a6.45,6.45,0,0,0-1.35.16A5,5,0,0,0,10,15.81a11.07,11.07,0,0,0,.12,2.07,7.48,7.48,0,0,0,.75,2.3,9.33,9.33,0,0,0,1.57,2.12c.82.86,1.72,1.64,2.61,2.42l3.86,3.41,1.08,1,.08-.08c.62-.57,1.22-1.14,1.85-1.7l3.9-3.42a21.44,21.44,0,0,0,2.29-2.28,7.51,7.51,0,0,0,1.51-2.74,8.62,8.62,0,0,0,.34-2,8.46,8.46,0,0,0,0-1.67,5,5,0,0,0-1.38-2.83,5.08,5.08,0,0,0-3.29-1.52h-.45a5,5,0,0,0-2.21.5,6.09,6.09,0,0,0-2.54,2.31l-.07.11L20,13.72a11.54,11.54,0,0,0-.73-1,5.31,5.31,0,0,0-4-1.9Z"/>
      </g>
    </g>
  </g>
</svg>
