<svg xmlns="http://www.w3.org/2000/svg" width="25" height="25" viewBox="0 0 25 25">
  <defs>
    <style>
      .cls-1 {
        fill: #95a700;
      }

      .cls-2 {
        fill: #fff;
      }
    </style>
  </defs>
  <title>fb</title>
  <g id="Слой_2" data-name="Слой 2">
    <g id="Layer_1" data-name="Layer 1">
      <g>
        <path class="cls-1" d="M20.31,0H4.69A4.69,4.69,0,0,0,0,4.69V20.31A4.69,4.69,0,0,0,4.69,25H20.31A4.69,4.69,0,0,0,25,20.31V4.69A4.69,4.69,0,0,0,20.31,0Z"/>
        <path class="cls-2" d="M17.5,6.29H15.39c-1.34,0-.89,1.06-.89,2v1H17l-.41,4H14.5v8h-4v-8h-3v-4h3V8a4,4,0,0,1,4.33-4.26,21.83,21.83,0,0,1,2.67.13Z"/>
      </g>
    </g>
  </g>
</svg>
