<svg xmlns="http://www.w3.org/2000/svg" viewBox="0 0 21 19.45"><defs><style>.cls-1{fill:none;stroke:#c2c4c5;stroke-miterlimit:10;}.cls-2{fill:#333;}</style></defs><title>heart-3</title><g id="Слой_2" data-name="Слой 2"><g id="Layer_1" data-name="Layer 1"><path class="cls-1" d="M10.5,18.77c-.36-.34-.72-.68-1.08-1L5.56,14.36C4.67,13.58,3.77,12.8,3,11.94A9.55,9.55,0,0,1,1.38,9.82,7.54,7.54,0,0,1,.63,7.51,10.91,10.91,0,0,1,.51,5.45,5,5,0,0,1,4.38.66,5.24,5.24,0,0,1,9.72,2.39c.27.3.49.64.73,1a.35.35,0,0,0,.05.08l.07-.11A6.18,6.18,0,0,1,13.11,1,5.18,5.18,0,0,1,15.77.52,5.08,5.08,0,0,1,19.06,2a5,5,0,0,1,1.38,2.82,8.58,8.58,0,0,1,0,1.68,8.62,8.62,0,0,1-.34,2,7.51,7.51,0,0,1-1.51,2.74,20.45,20.45,0,0,1-2.29,2.27L12.43,17c-.63.55-1.23,1.13-1.85,1.7Z"/><path class="cls-2" d="M10.5,18.77c-.36-.34-.72-.68-1.08-1L5.56,14.36C4.67,13.58,3.77,12.8,3,11.94A9.55,9.55,0,0,1,1.38,9.82,7.54,7.54,0,0,1,.63,7.51,10.91,10.91,0,0,1,.51,5.45,5,5,0,0,1,4.38.66,5.24,5.24,0,0,1,9.72,2.39c.27.3.49.64.73,1a.35.35,0,0,0,.05.08l.07-.11A6.18,6.18,0,0,1,13.11,1,5.18,5.18,0,0,1,15.77.52,5.08,5.08,0,0,1,19.06,2a5,5,0,0,1,1.38,2.82,8.58,8.58,0,0,1,0,1.68,8.62,8.62,0,0,1-.34,2,7.51,7.51,0,0,1-1.51,2.74,20.45,20.45,0,0,1-2.29,2.27L12.43,17c-.63.55-1.23,1.13-1.85,1.7Z"/></g></g></svg>