<svg xmlns="http://www.w3.org/2000/svg" width="25" height="25" viewBox="0 0 25 25">
  <defs>
    <style>
      .cls-1 {
        fill: #95a700;
      }

      .cls-2 {
        fill: #fff;
      }
    </style>
  </defs>
  <title>icon-inst</title>
  <g id="Слой_2" data-name="Слой 2">
    <g id="Layer_1" data-name="Layer 1">
      <g>
        <path class="cls-1" d="M25,0H0V25H25Z"/>
        <g>
          <path class="cls-2" d="M9.05,9c-2.94,3.92-.3,8.21,3.4,8.24a4.72,4.72,0,0,0,4.76-4.68C17.23,8.82,13,6.14,9.05,9Zm5.68,5.79c-3.29,2.47-7-1.25-4.47-4.53C13.55,7.76,17.25,11.48,14.73,14.76Z"/>
          <path class="cls-2" d="M21.46,7.4a4.71,4.71,0,0,0-3.54-3.79,8.69,8.69,0,0,0-2.38-.26q-3,0-6.09,0a9.19,9.19,0,0,0-2.09.19A4.7,4.7,0,0,0,3.63,7a8.26,8.26,0,0,0-.28,2.42q0,3.09,0,6.18a8.76,8.76,0,0,0,.19,2,4.73,4.73,0,0,0,3.75,3.81,12,12,0,0,0,2.54.22c.89,0,1.78,0,2.66,0s1.79,0,2.68,0a11.58,11.58,0,0,0,2.42-.2,4.7,4.7,0,0,0,3.85-3.77,34.83,34.83,0,0,0,.29-4.32,8.14,8.14,0,0,0,0-1.71A40.77,40.77,0,0,0,21.46,7.4ZM19.8,17.5a3.08,3.08,0,0,1-2.59,2.36,8.67,8.67,0,0,1-1.44.14q-3.27,0-6.55,0a6.3,6.3,0,0,1-1.73-.2,3.11,3.11,0,0,1-2.36-2.57A14,14,0,0,1,5,14.81C5,14,5,13.27,5,12.5h0C5,11.22,5,9.94,5,8.66A4.82,4.82,0,0,1,5.28,7.2a3,3,0,0,1,2.34-2A8.5,8.5,0,0,1,9.21,5c1.36,0,2.71,0,4.06,0,1,0,2.05,0,3.07,0a4.36,4.36,0,0,1,1.74.38,3,3,0,0,1,1.75,2.25A8.81,8.81,0,0,1,20,9.27c0,2.15,0,4.31,0,6.46A6.64,6.64,0,0,1,19.8,17.5Z"/>
          <path class="cls-2" d="M17.35,6.51a1.1,1.1,0,1,0,1.14,1.07A1.1,1.1,0,0,0,17.35,6.51Z"/>
        </g>
      </g>
    </g>
  </g>
</svg>
