<svg xmlns="http://www.w3.org/2000/svg" width="24.24" height="23.82" viewBox="0 0 24.24 23.82">
  <defs>
    <style>
      .cls-1 {
        fill: none;
        stroke: #c2c4c5;
        stroke-miterlimit: 10;
      }
    </style>
  </defs>
  <title>info</title>
  <g id="Слой_2" data-name="Слой 2">
    <g id="Layer_1" data-name="Layer 1">
      <g>
        <path class="cls-1" d="M15.89,6.62V22.49a.84.84,0,0,1-.83.83H1.33a.83.83,0,0,1-.83-.83V2a.83.83,0,0,1,.83-.83h9.15"/>
        <path class="cls-1" d="M15.89,6.62H11.31a.83.83,0,0,1-.83-.83V1.21l5.41,5.41Z"/>
        <path class="cls-1" d="M18.83,4h3V19.37c0,3.06-3,3.06-3,0V4Z"/>
        <polyline class="cls-1" points="23.73 12.15 23.74 6.41 18.81 6.41"/>
        <line class="cls-1" x1="20.26" y1="23.32" x2="20.26" y2="21.67"/>
        <line class="cls-1" x1="3.82" y1="5.66" x2="8.19" y2="5.66"/>
        <line class="cls-1" x1="3.82" y1="9.8" x2="12.57" y2="9.8"/>
        <line class="cls-1" x1="3.82" y1="12.21" x2="12.57" y2="12.21"/>
        <line class="cls-1" x1="3.82" y1="14.63" x2="12.57" y2="14.63"/>
        <line class="cls-1" x1="3.82" y1="17.05" x2="8.19" y2="17.05"/>
      </g>
    </g>
  </g>
</svg>
