<svg xmlns="http://www.w3.org/2000/svg" width="38.65" height="34.48" viewBox="0 0 38.65 34.48">
  <defs>
    <style>
      .cls-1 {
        fill: #f3f3f5;
      }

      .cls-2 {
        fill: #95a700;
      }
    </style>
  </defs>
  <title>like</title>
  <g id="Слой_2" data-name="Слой 2">
    <g id="Layer_1" data-name="Layer 1">
      <g>
        <path class="cls-1" d="M37.8,19a4.87,4.87,0,0,0,.52-4.51A4,4,0,0,0,34.46,12H27.6c.23-1.4.54-3.36.52-3.79h0a19.49,19.49,0,0,0-2.06-6.45A4.41,4.41,0,0,0,22.33,0a5,5,0,0,0-1,.11c-2.58.55-3.22,2.34-3.19,3.32,0,.16.07,2.94.09,4.11-.48,1-1.38,2.61-2.27,4a23.81,23.81,0,0,1-2,2.86,3,3,0,0,0-.52,0H2.87A2.88,2.88,0,0,0,0,17.25V31.92a2.79,2.79,0,0,0,2.77,2.56h9.47A2.8,2.8,0,0,0,14.71,33a4.44,4.44,0,0,0,1.91.44H30.75c3.2,0,4.62-1.49,5.24-2.75a5.43,5.43,0,0,0,.41-3.62A5,5,0,0,0,37.11,23,4.85,4.85,0,0,0,37.8,19Z"/>
        <path class="cls-2" d="M36.36,18.75c1.83-1.81,1.27-5.51-1.9-5.51H26.11c.32-1.77.78-4.7.76-5A18.16,18.16,0,0,0,25,2.34a3.53,3.53,0,0,0-3.39-1c-2,.43-2.21,1.71-2.19,2.06,0,0,.08,3.49.09,4.42-1,2.1-4.26,7.63-5.25,8.05a1.51,1.51,0,0,0-.8-.22H2.87a1.61,1.61,0,0,0-1.62,1.61V31.82a1.53,1.53,0,0,0,1.52,1.4h9.47a1.53,1.53,0,0,0,1.53-1.52v-.48a1,1,0,0,1,.5.07,4.35,4.35,0,0,0,2.35.88H30.75c5.28,0,4.72-4.69,4.24-5.33a3.63,3.63,0,0,0,.68-4,3.6,3.6,0,0,0,.69-4.05Z"/>
        <rect class="cls-2" x="2.77" y="17.16" width="9.15" height="14.54"/>
        <path class="cls-1" d="M33.9,18.63l-.09.36c2.43.7,1.14,3.5-.61,3.68l-.09.36c2.34.59,1.23,3.48-.6,3.68l-.09.36c1.91.31,1.45,3.57-1.44,3.57H16.6c-1,0-1.93-1.16-2.68-1.16h-.65V18.29a23.81,23.81,0,0,0,2.36-1.63C16.68,15.77,21,8.84,21,8s-.09-4.63-.09-4.63.84-1.08,2.72-.29a16.49,16.49,0,0,1,1.74,5.33s-.71,4.86-1.09,6.39h10c2.45,0,2,3.5-.31,3.86Z"/>
        <path class="cls-1" d="M8.59,30a1.25,1.25,0,1,1-1.25-1.25A1.24,1.24,0,0,1,8.59,30Z"/>
      </g>
    </g>
  </g>
</svg>
