<svg xmlns="http://www.w3.org/2000/svg" width="23.48" height="33.52" viewBox="0 0 23.48 33.52">
  <title>location</title>
  <g id="Слой_2" data-name="Слой 2">
    <g id="Layer_1" data-name="Layer 1">
      <g>
        <path d="M11.85,7.35a4.29,4.29,0,1,0,4.28,4.28A4.29,4.29,0,0,0,11.85,7.35Zm0,7.34a3.06,3.06,0,1,1,3.06-3.06A3.06,3.06,0,0,1,11.85,14.69Z"/>
        <path d="M20,3.44a11.73,11.73,0,0,0-16.6,0c-4.1,4.1-4.61,11.82-1.11,16.5l9.41,13.58L21.13,20C24.66,15.26,24.15,7.54,20,3.44Zm.1,15.8-8.4,12.13L3.33,19.22C.15,15,.6,8,4.31,4.3a10.51,10.51,0,0,1,14.87,0C22.88,8,23.34,15,20.14,19.24Z"/>
      </g>
    </g>
  </g>
</svg>
