<svg xmlns="http://www.w3.org/2000/svg" width="228.59" height="52.56" viewBox="0 0 228.59 52.56">
  <defs>
    <style>
      .cls-1 {
        fill: #96a700;
      }

      .cls-2 {
        fill: #ccce4f;
      }

      .cls-3 {
        fill: #4c393a;
      }

      .cls-4 {
        fill: #b4a098;
      }

      .cls-5 {
        fill: #d2aeb3;
      }
    </style>
  </defs>
  <title>logo</title>
  <g id="Слой_2" data-name="Слой 2">
    <g id="Layer_1" data-name="Layer 1">
      <g>
        <g>
          <path class="cls-1" d="M102.84,34.46a3.38,3.38,0,0,1-.4,1.73,1.43,1.43,0,0,1-1.36.7,1,1,0,0,1-.94-.52,2.6,2.6,0,0,1-.27-1.23,12.49,12.49,0,0,0-.34-2.73c-.23-1-.44-1.93-.65-2.86-.31-2.32-.59-4.63-.86-6.94q-.85-4.29-3.47-5.55a25,25,0,0,0-1.89,4.15,13.92,13.92,0,0,0-.82,4.55,12.85,12.85,0,0,0,.23,1.94,12.53,12.53,0,0,1,.22,1.94A2,2,0,0,1,91.8,31a2.24,2.24,0,0,1-1.35.68l-1.18-.41a22.74,22.74,0,0,1-2.47-4.86q-1.5-3.89-2.17-5.14a23.52,23.52,0,0,0-4.46-5.86,33.87,33.87,0,0,0-.83,5.47q-.21,2.82-.21,6.47v5.77a4.11,4.11,0,0,1-.35,1.62,8.37,8.37,0,0,1-2.62.68,11.54,11.54,0,0,1-.36-2.09c-.06-.74-.09-1.54-.09-2.42q0-7.6.27-11.9c.39-6.43,1.15-9.64,2.3-9.64s3.15,2,5.77,6q2.57,4,5.13,7.89,1.14-2.71,2.08-5.68c.63-2,1.17-3.95,1.62-5.91a3.72,3.72,0,0,1,.63-1.55,1.56,1.56,0,0,1,1.35-.61,2.44,2.44,0,0,1,2,1.26,41.65,41.65,0,0,1,2,6.27q1.31,4.73,2.63,10.57A56.13,56.13,0,0,1,102.84,34.46Z"/>
          <path class="cls-1" d="M124.93,47.89a2.12,2.12,0,0,1-.25,1.24,2.55,2.55,0,0,1-.74.56,22.75,22.75,0,0,1-6-2.84,15.72,15.72,0,0,0-8.21-2,10.77,10.77,0,0,0-3.24.54l-5.28,1.71a5.75,5.75,0,0,1-1.21-.72,1.07,1.07,0,0,1-.23-.77q0-2.39,4.42-3.51a26.09,26.09,0,0,1,6.4-.72,16.75,16.75,0,0,1,4.6.63,74.59,74.59,0,0,1,7,3,16.76,16.76,0,0,0,.36-2,17.15,17.15,0,0,0,.14-2.12,21,21,0,0,0-.43-4.35,17.13,17.13,0,0,0-1.37-4c-.91.87-1.61,1.53-2.12,2a4.27,4.27,0,0,1-2.53,1.27,6.67,6.67,0,0,1-5.9-3.61,13.34,13.34,0,0,1-1.89-7.08,12.72,12.72,0,0,1,.45-3.42q2.29.54,2.86,5.86c.37,3.54,1.82,5.32,4.35,5.32,1.53,0,2.6-.87,3.2-2.62a14.61,14.61,0,0,0,.58-4.59,10.73,10.73,0,0,0-.24-1.74,10.3,10.3,0,0,1-.25-1.65,2.27,2.27,0,0,1,.38-1.28,2.83,2.83,0,0,1,1.11-.92,2.66,2.66,0,0,1,1.3,1q.45.54,1.09,6.33t1.12,12.44Q124.93,46.44,124.93,47.89Z"/>
          <g>
            <path class="cls-2" d="M159.18,7.14q-.72,2.39-7.57,3l-5,.36q1,4.72,2,9.84a47.38,47.38,0,0,1,1,9.2,9.19,9.19,0,0,0,.49,2.43,9.36,9.36,0,0,1,.5,2.48,1.28,1.28,0,0,1-.34,1,3.19,3.19,0,0,1-1.15.58,2.24,2.24,0,0,1-1.71-.79,3,3,0,0,1-.45-1.73,14.17,14.17,0,0,1,.16-1.86q.15-1.2.15-1.47a46.15,46.15,0,0,0-.58-6.3,47.84,47.84,0,0,0-1.9-8.54Q143.36,11,141.56,11a42.09,42.09,0,0,0-7.12,1.35,19.28,19.28,0,0,1-4.33.63,3.25,3.25,0,0,1-1.15-.13,2.37,2.37,0,0,1-.74-.9,2.2,2.2,0,0,1,1.8-2q3.28-.63,9-1.53l9.28-1.47c3.73-.58,6.7-1.12,8.92-1.6l1,.36C158.47,5.79,158.79,6.27,159.18,7.14Z"/>
            <path class="cls-2" d="M180.64,31.24q0,2.76-3.79,4.39a15.79,15.79,0,0,1-6.22,1.26,7.53,7.53,0,0,1-8-8A8.34,8.34,0,0,1,164.88,23a7.39,7.39,0,0,1,5.66-2.42,9.4,9.4,0,0,1,7.1,3.23A10.57,10.57,0,0,1,180.64,31.24Zm-2.35-1.31a6.13,6.13,0,0,0-2.27-4.5,6.94,6.94,0,0,0-4.71-2.1A6.21,6.21,0,0,0,167.16,25a5,5,0,0,0-1.94,3.85,5.36,5.36,0,0,0,1.74,4,5.52,5.52,0,0,0,4,1.69,10.31,10.31,0,0,0,4.59-1.08C177.38,32.51,178.29,31.35,178.29,29.93Z"/>
            <path class="cls-2" d="M196.68,32.66a2.65,2.65,0,0,1-1.8,2.66,9.73,9.73,0,0,1-3.52.49q-4.46,0-5.77-1.53-1-1.17-1-5V27c0-.69-.11-1.13-.34-1.31a2.23,2.23,0,0,0-1.32-.27h-.5a3.07,3.07,0,0,1-1.51-.45,1.28,1.28,0,0,1-.79-1.08q0-.81,2.61-1.68a4.05,4.05,0,0,0,3-3.26,51.11,51.11,0,0,1,.25-5.63q.25-2.07,1-2.07c.87,0,1.48.54,1.84,1.62a10.66,10.66,0,0,1,.41,3.36c0,.66,0,1.24,0,1.73s-.06.95-.09,1.37,0,.64,0,.94.14.45.38.45c.48-.15,1-.3,1.47-.43a5.29,5.29,0,0,1,1.46-.2c1,0,1.49.57,1.49,1.71,0,.87-1,1.55-3.07,2a3.69,3.69,0,0,0-3.06,4V29.1a8.46,8.46,0,0,0,.31,2.7,1.88,1.88,0,0,0,1.9,1.4,5.38,5.38,0,0,0,2.07-.45,13.49,13.49,0,0,1,3.38-1.13C196.29,31.62,196.68,32,196.68,32.66Z"/>
            <path class="cls-2" d="M210.66,32.66a2.65,2.65,0,0,1-1.81,2.66,9.71,9.71,0,0,1-3.51.49q-4.47,0-5.77-1.53-1-1.17-1-5V27c0-.69-.12-1.13-.34-1.31a2.29,2.29,0,0,0-1.33-.27h-.5a3.07,3.07,0,0,1-1.51-.45,1.29,1.29,0,0,1-.79-1.08c0-.54.87-1.1,2.62-1.68a4.07,4.07,0,0,0,3-3.26,48.72,48.72,0,0,1,.25-5.63c.16-1.38.5-2.07,1-2.07.87,0,1.49.54,1.85,1.62a11,11,0,0,1,.4,3.36c0,.66,0,1.24,0,1.73s-.06.95-.09,1.37,0,.64,0,.94.14.45.38.45c.48-.15,1-.3,1.47-.43a5.29,5.29,0,0,1,1.46-.2c1,0,1.49.57,1.49,1.71,0,.87-1,1.55-3.06,2a3.69,3.69,0,0,0-3.07,4V29.1a8.41,8.41,0,0,0,.32,2.7A1.88,1.88,0,0,0,204,33.2a5.38,5.38,0,0,0,2.07-.45,13.62,13.62,0,0,1,3.38-1.13C210.26,31.62,210.66,32,210.66,32.66Z"/>
            <path class="cls-2" d="M228.59,31.24q0,2.76-3.78,4.39a15.83,15.83,0,0,1-6.22,1.26,7.53,7.53,0,0,1-8-8A8.3,8.3,0,0,1,212.84,23a7.37,7.37,0,0,1,5.66-2.42,9.4,9.4,0,0,1,7.1,3.23A10.6,10.6,0,0,1,228.59,31.24Zm-2.34-1.31a6.11,6.11,0,0,0-2.28-4.5,6.9,6.9,0,0,0-4.71-2.1A6.2,6.2,0,0,0,215.12,25a5,5,0,0,0-1.94,3.85,5.39,5.39,0,0,0,1.73,4,5.55,5.55,0,0,0,4,1.69,10.32,10.32,0,0,0,4.6-1.08Q226.25,32.05,226.25,29.93Z"/>
          </g>
        </g>
        <g>
          <path class="cls-3" d="M34,52.56c-17.37,0-29.5-9.79-29.5-23.82A23.31,23.31,0,0,1,12.56,10.8c5.13-4.43,12.35-6.86,20.32-6.86a34.53,34.53,0,0,1,21.31,6.9c5.93,4.66,9.19,11.07,9.19,18.07C63.38,42.84,51.29,52.56,34,52.56ZM32.88,7C18,7,7.57,16,7.57,28.74c0,12.2,10.86,20.73,26.41,20.73,7.43,0,14.14-2,18.87-5.6a18.21,18.21,0,0,0,7.43-15,19.72,19.72,0,0,0-8-15.63A31.41,31.41,0,0,0,32.88,7Z"/>
          <path class="cls-4" d="M53.87,27.14c0,11-11,17.24-21.21,16.8-12.22-.53-21.82-5.77-21-17.24.66-9.28,7.77-15.93,20.33-15.47C44.15,11.67,53.87,16.14,53.87,27.14Z"/>
          <g>
            <polygon class="cls-3" points="22.06 5.97 19.95 3.98 17.38 1.55 17.07 5.3 16.82 8.44 22.06 5.97"/>
            <path class="cls-3" d="M16.82,10a1.54,1.54,0,0,1-.89-.28,1.56,1.56,0,0,1-.66-1.4l.57-6.89a1.55,1.55,0,0,1,2.61-1l4.68,4.43a1.55,1.55,0,0,1-.41,2.52L17.47,9.84A1.47,1.47,0,0,1,16.82,10Zm1.84-5.11-.08,1,.77-.36Z"/>
          </g>
          <g>
            <polygon class="cls-3" points="48 6.81 50.1 4.82 52.66 2.38 52.97 6.14 53.23 9.28 48 6.81"/>
            <path class="cls-3" d="M53.23,10.82a1.51,1.51,0,0,1-.66-.14L47.34,8.21a1.54,1.54,0,0,1-.4-2.52L51.6,1.26a1.55,1.55,0,0,1,2.61,1l.56,6.89a1.57,1.57,0,0,1-.66,1.4A1.59,1.59,0,0,1,53.23,10.82ZM50.71,6.38l.76.36-.08-1Z"/>
          </g>
          <g>
            <g>
              <line class="cls-3" x1="6.57" y1="24.22" x2="1.93" y2="22.11"/>
              <path class="cls-3" d="M6.57,25.11A.94.94,0,0,1,6.21,25L1.57,22.91A.88.88,0,1,1,2.3,21.3l4.64,2.12a.88.88,0,0,1,.44,1.17A.9.9,0,0,1,6.57,25.11Z"/>
            </g>
            <g>
              <line class="cls-3" x1="6.96" y1="27.16" x2="0.88" y2="26.91"/>
              <path class="cls-3" d="M7,28h0L.85,27.79A.88.88,0,0,1,0,26.87.9.9,0,0,1,.92,26L7,26.27a.9.9,0,0,1,.84.92A.88.88,0,0,1,7,28Z"/>
            </g>
            <g>
              <line class="cls-3" x1="6.35" y1="30.9" x2="1.35" y2="31.21"/>
              <path class="cls-3" d="M1.35,32.09a.89.89,0,0,1-.05-1.77l5-.3a.88.88,0,0,1,.94.83.89.89,0,0,1-.83.93l-5,.31Z"/>
            </g>
          </g>
          <g>
            <g>
              <line class="cls-3" x1="61.83" y1="27.32" x2="66.47" y2="25.2"/>
              <path class="cls-3" d="M61.83,28.2a.88.88,0,0,1-.36-1.69l4.64-2.11a.88.88,0,0,1,1.17.44A.89.89,0,0,1,66.84,26L62.2,28.12A1,1,0,0,1,61.83,28.2Z"/>
            </g>
            <g>
              <line class="cls-3" x1="61.45" y1="30.25" x2="67.52" y2="30"/>
              <path class="cls-3" d="M61.45,31.14a.89.89,0,0,1,0-1.77l6.08-.25a.89.89,0,0,1,.07,1.77l-6.08.25Z"/>
            </g>
            <g>
              <line class="cls-3" x1="62.05" y1="33.99" x2="67.05" y2="34.3"/>
              <path class="cls-3" d="M67.05,35.18h0l-5-.3a.89.89,0,0,1,.11-1.77l5,.31a.88.88,0,0,1-.06,1.76Z"/>
            </g>
          </g>
          <g>
            <polygon class="cls-3" points="30 30.9 28.9 28.47 31.33 28.25 30 30.9"/>
            <path class="cls-3" d="M30,31.79h0a.89.89,0,0,1-.79-.52l-1.11-2.43a.92.92,0,0,1,0-.81.9.9,0,0,1,.69-.44l2.43-.22a.88.88,0,0,1,.87,1.27L30.79,31.3A.88.88,0,0,1,30,31.79Z"/>
          </g>
          <path class="cls-3" d="M32.71,34.58c-1.92,0-3.24-1.31-3.58-3.55a.88.88,0,0,1,1.75-.26c.16,1.09.59,1.75,1.27,2a2.79,2.79,0,0,0,2.12-.39.88.88,0,0,1,1.7.33c0,1.09-1.7,1.8-2.94,1.89Z"/>
          <path class="cls-3" d="M27.61,34.14A4.16,4.16,0,0,1,26.53,34c-1.19-.34-2.72-1.37-2.5-2.45a.89.89,0,0,1,1.74,0,2.73,2.73,0,0,0,2,.81c.7-.07,1.25-.63,1.63-1.67a.88.88,0,0,1,1.66.61C30.39,33.13,29.14,34.14,27.61,34.14Zm-1.85-2.25Z"/>
          <path class="cls-3" d="M49.24,27.67a4.52,4.52,0,0,0-4.66-4.12A4.58,4.58,0,0,0,40,27.07a17.69,17.69,0,0,1,3.63-.37A15.17,15.17,0,0,1,49.24,27.67Z"/>
          <path class="cls-3" d="M13.68,25.26A4.52,4.52,0,0,1,19.1,22.2a4.59,4.59,0,0,1,3.74,4.41,17.76,17.76,0,0,0-3.48-1.13A15.26,15.26,0,0,0,13.68,25.26Z"/>
        </g>
        <ellipse class="cls-5" cx="43.49" cy="30.9" rx="4.57" ry="2.36"/>
        <ellipse class="cls-5" cx="18.44" cy="29.13" rx="2.36" ry="4.57" transform="translate(-12.42 44.51) rotate(-84.16)"/>
      </g>
    </g>
  </g>
</svg>
