<svg xmlns="http://www.w3.org/2000/svg" width="37.71" height="24.26" viewBox="0 0 37.71 24.26">
  <title>message</title>
  <g id="Слой_2" data-name="Слой 2">
    <g id="Layer_1" data-name="Layer 1">
      <path d="M36.16,0H1.55A1.56,1.56,0,0,0,0,1.55V22.7a1.56,1.56,0,0,0,1.55,1.56H36.16a1.55,1.55,0,0,0,1.55-1.56V1.55A1.55,1.55,0,0,0,36.16,0ZM1.55,1.22H36.16a.34.34,0,0,1,.32.24l-17.62,11L1.24,1.46A.33.33,0,0,1,1.55,1.22ZM1.22,2.85l12.67,7.91L1.22,20.82ZM36.49,22.7a.33.33,0,0,1-.33.33H1.55a.33.33,0,0,1-.33-.33v-.33L15,11.49l3.54,2.21a.63.63,0,0,0,.65,0l3.54-2.21L36.49,22.37Zm0-1.88-12.7-10,12.7-7.87Z"/>
    </g>
  </g>
</svg>
