<svg xmlns="http://www.w3.org/2000/svg" width="25" height="25" viewBox="0 0 25 25">
  <defs>
    <style>
      .cls-1 {
        fill: #95a700;
      }

      .cls-2 {
        fill: #fefefd;
      }
    </style>
  </defs>
  <title>ok</title>
  <g id="Слой_2" data-name="Слой 2">
    <g id="Layer_1" data-name="Layer 1">
      <g>
        <path class="cls-1" d="M20.31,0H4.69A4.69,4.69,0,0,0,0,4.69V20.31A4.69,4.69,0,0,0,4.69,25H20.31A4.69,4.69,0,0,0,25,20.31V4.69A4.69,4.69,0,0,0,20.31,0Z"/>
        <g>
          <path class="cls-2" d="M7.69,8a4.89,4.89,0,1,1,4.9,4.88A4.89,4.89,0,0,1,7.69,8Zm4.89,2a2,2,0,1,0-2-2A2,2,0,0,0,12.58,10Z"/>
          <path class="cls-2" d="M14.33,16.73a.29.29,0,0,0,.09.12l2.82,2.8a1.33,1.33,0,1,1-1.87,1.89l-2.09-2c-.23-.23-.46-.44-.68-.67-.07-.08-.11-.06-.17,0L9.94,21.5a1.35,1.35,0,0,1-1.52.34A1.34,1.34,0,0,1,8,19.7c.38-.41.77-.8,1.15-1.2l1.57-1.65c.07-.07.09-.1,0-.12a8.76,8.76,0,0,1-2.87-1.16,1.51,1.51,0,0,1-.74-.9,1.32,1.32,0,0,1,2-1.44,5.68,5.68,0,0,0,2.5,1,6.31,6.31,0,0,0,3.3-.39,4.52,4.52,0,0,0,1-.54,1.33,1.33,0,1,1,1.59,2.13,7.63,7.63,0,0,1-2.23,1.11A9.12,9.12,0,0,1,14.33,16.73Z"/>
        </g>
      </g>
    </g>
  </g>
</svg>
