<svg xmlns="http://www.w3.org/2000/svg" width="20" height="20" viewBox="0 0 20 20">
  <defs>
    <style>
      .cls-1 {
        fill: #c2c4c5;
      }
    </style>
  </defs>
  <title>pers</title>
  <g id="Слой_2" data-name="Слой 2">
    <g id="Layer_1" data-name="Layer 1">
      <path class="cls-1" d="M10,0A10,10,0,1,0,20,10,10,10,0,0,0,10,0Zm0,.83a9.16,9.16,0,0,1,7.05,15c-.92-.38-3.07-1.13-4.41-1.52-.11,0-.13,0-.13-.52a2.73,2.73,0,0,1,.32-1.12,5.63,5.63,0,0,0,.44-1.51,3.5,3.5,0,0,0,.66-1.59,2.16,2.16,0,0,0,0-1.33l0-.08A8.28,8.28,0,0,1,14,6.31a3.47,3.47,0,0,0-.72-2.47,3.71,3.71,0,0,0-2.82-1.35H9.65A3.66,3.66,0,0,0,6.86,3.84a3.42,3.42,0,0,0-.72,2.47,9.72,9.72,0,0,1,.15,1.87l0,.08a2,2,0,0,0,0,1.33,3.41,3.41,0,0,0,.65,1.59,5.62,5.62,0,0,0,.45,1.51,2.82,2.82,0,0,1,.18,1.14c0,.47,0,.48-.13.51C6,14.75,3.82,15.55,3,15.9A9.09,9.09,0,0,1,.83,10,9.19,9.19,0,0,1,10,.83ZM3.6,16.55c.94-.38,2.81-1.05,4-1.41.71-.22.71-.83.71-1.31a3.5,3.5,0,0,0-.26-1.49A4.71,4.71,0,0,1,7.71,11a.39.39,0,0,0-.15-.28,2.61,2.61,0,0,1-.51-1.24c-.12-.61-.07-.74,0-.87l.06-.16A8.25,8.25,0,0,0,7,6.16a2.6,2.6,0,0,1,.55-1.8,2.84,2.84,0,0,1,2.16-1h.79a2.84,2.84,0,0,1,2.19,1,2.55,2.55,0,0,1,.55,1.8,8.19,8.19,0,0,0-.13,2.23,1.62,1.62,0,0,0,.06.17c0,.13.1.26,0,.87a2.41,2.41,0,0,1-.51,1.24.42.42,0,0,0-.14.28,4.71,4.71,0,0,1-.39,1.39,3.57,3.57,0,0,0-.39,1.47c0,.49,0,1.09.72,1.32,1.17.34,3,1,4,1.38a9.14,9.14,0,0,1-12.85,0Z"/>
    </g>
  </g>
</svg>
