<svg xmlns="http://www.w3.org/2000/svg" width="28.38" height="28.38" viewBox="0 0 28.38 28.38">
  <title>phone</title>
  <g id="Слой_2" data-name="Слой 2">
    <g id="Layer_1" data-name="Layer 1">
      <path d="M22.81,28.38a12.28,12.28,0,0,1-4.18-.89A31.46,31.46,0,0,1,8.1,20.28,31.34,31.34,0,0,1,.89,9.74C-.29,6.62-.3,4.05.88,2.88l.52-.54C2.47,1.21,3.68-.06,5.29,0A4.66,4.66,0,0,1,8.56,2.1c3.25,4,1.78,5.47.09,7.14l-.3.29c-.27.28-.8,1.56,4.07,6.43a26.81,26.81,0,0,0,4,3.45c.69.45,1.9,1.12,2.4.62l.3-.31c1.67-1.69,3.11-3.14,7.14.1a4.7,4.7,0,0,1,2.1,3.27C28.44,24.7,27.16,25.91,26,27l-.54.52A3.69,3.69,0,0,1,22.81,28.38ZM5.17,1C4,1,3,2,2.09,3c-.18.19-.36.38-.54.55-.87.88-.78,3.17.23,5.86a30.27,30.27,0,0,0,7,10.19A30.42,30.42,0,0,0,19,26.6c2.68,1,5,1.1,5.86.22l.55-.53c1-.93,2.09-2,2-3.16a3.85,3.85,0,0,0-1.74-2.57c-3.36-2.7-4.3-1.75-5.85-.17l-.31.31c-.74.74-1.95.58-3.6-.49a28.26,28.26,0,0,1-4.18-3.58c-4-4-5.33-6.51-4.06-7.77l.3-.3C9.57,7,10.52,6.06,7.82,2.7A3.85,3.85,0,0,0,5.25,1Z"/>
    </g>
  </g>
</svg>
