<svg xmlns="http://www.w3.org/2000/svg" width="25" height="25" viewBox="0 0 25 25">
  <defs>
    <style>
      .cls-1 {
        fill: #b9cd1d;
      }

      .cls-2 {
        fill: #fff;
      }
    </style>
  </defs>
  <title>telegram</title>
  <g id="Слой_2" data-name="Слой 2">
    <g id="Layer_1" data-name="Layer 1">
      <g>
        <path class="cls-1" d="M20.31,0H4.69A4.69,4.69,0,0,0,0,4.69V20.31A4.69,4.69,0,0,0,4.69,25H20.31A4.69,4.69,0,0,0,25,20.31V4.69A4.69,4.69,0,0,0,20.31,0Z"/>
        <path class="cls-2" d="M20.49,4.23a1.91,1.91,0,0,0-.82.16L16.28,5.81,11.12,8,6.82,9.79,4.34,10.84a2.12,2.12,0,0,0-.61.37,1.19,1.19,0,0,0-.28,1.53,1.61,1.61,0,0,0,.73.66,5.07,5.07,0,0,0,.65.24l3,1a.11.11,0,0,1,.09.08l.15.52c.34,1.09.68,2.19,1,3.28a4.36,4.36,0,0,0,.32.85,1.09,1.09,0,0,0,1.71.42c.54-.46,1.06-1,1.59-1.44l.45-.41,0,0,3.2,2.46a1.16,1.16,0,0,0,.32.2,3.52,3.52,0,0,0,.52.12,1.61,1.61,0,0,0,1.52-.6,1.38,1.38,0,0,0,.31-.6c0-.16,0-.31.08-.47l.51-2.57.51-2.65c.14-.7.28-1.39.41-2.09L21,9.64c.12-.59.23-1.19.35-1.78s.23-1.19.35-1.78a2.26,2.26,0,0,0,0-.86A1.28,1.28,0,0,0,20.49,4.23ZM20.23,6l-.75,3.81-.72,3.7c-.25,1.26-.49,2.52-.74,3.77-.12.64-.25,1.28-.37,1.92a.2.2,0,0,1-.24.17.6.6,0,0,1-.23-.1l-2.29-1.74L13.1,16.15l-.06,0-2.51,2.28h0a2.17,2.17,0,0,0,0-.25c.09-.59.19-1.19.28-1.79.07-.43.13-.86.2-1.28a.21.21,0,0,1,.06-.1l2.5-2.33,2.65-2.47c.53-.49,1.06-1,1.58-1.48A2.39,2.39,0,0,0,18,8.46a.21.21,0,0,0,0-.25.13.13,0,0,0-.17-.06,1,1,0,0,0-.29.11l-4,2.46L9.45,13.3l-.39.24H9L5.32,12.31l-.46-.15,15.4-6.49,0,0C20.27,5.79,20.25,5.9,20.23,6Z"/>
      </g>
    </g>
  </g>
</svg>
