<svg xmlns="http://www.w3.org/2000/svg" width="25" height="25" viewBox="0 0 25 25">
  <defs>
    <style>
      .cls-1 {
        fill: #95a700;
      }

      .cls-2 {
        fill: #fff;
      }
    </style>
  </defs>
  <title>tw</title>
  <g id="Слой_2" data-name="Слой 2">
    <g id="Layer_1" data-name="Layer 1">
      <g>
        <path class="cls-1" d="M20.31,0H4.69A4.69,4.69,0,0,0,0,4.69V20.31A4.69,4.69,0,0,0,4.69,25H20.31A4.69,4.69,0,0,0,25,20.31V4.69A4.69,4.69,0,0,0,20.31,0Z"/>
        <path class="cls-2" d="M15.76,5h.59s0,0,0,0a3.79,3.79,0,0,1,2.35,1.09.23.23,0,0,0,.26.07,7.78,7.78,0,0,0,2.19-.85s0,0,.06,0v0a.17.17,0,0,1,0,.05,3.78,3.78,0,0,1-1.51,1.94s-.07,0-.09.06h.11a7.74,7.74,0,0,0,1.83-.49.44.44,0,0,1,.19-.07h0s0,0,0,0A7.93,7.93,0,0,1,20,8.65a.16.16,0,0,0-.08.16,10.27,10.27,0,0,1-.17,2.28A11.24,11.24,0,0,1,18,15.39,10.56,10.56,0,0,1,15.55,18a10.2,10.2,0,0,1-4,1.84A11.34,11.34,0,0,1,9,20.05,10.7,10.7,0,0,1,3.29,18.4s0,0-.06,0a7.62,7.62,0,0,0,5.58-1.58,3.82,3.82,0,0,1-3.53-2.66A3.71,3.71,0,0,0,7,14.05l0,0a3.65,3.65,0,0,1-.64-.2,4,4,0,0,1-1.15-.75,3.54,3.54,0,0,1-.53-.63,4.09,4.09,0,0,1-.5-1,3.69,3.69,0,0,1-.16-1.09c0-.07,0-.06.06,0l.15.08a3.86,3.86,0,0,0,1.51.37,3.84,3.84,0,0,1-1.18-5.1l.26.3a10.92,10.92,0,0,0,2,1.76,10.65,10.65,0,0,0,2,1.12,10.3,10.3,0,0,0,1.6.52c.34.08.68.15,1,.2l.63.07c.09,0,.19,0,.29,0s.07,0,.06-.06A2.09,2.09,0,0,1,12.26,9a3.93,3.93,0,0,1,.05-1,4.49,4.49,0,0,1,.24-.79,4.31,4.31,0,0,1,.64-1,3.85,3.85,0,0,1,.59-.55,3.36,3.36,0,0,1,.85-.47A3.49,3.49,0,0,1,15.51,5,.69.69,0,0,0,15.76,5Z"/>
      </g>
    </g>
  </g>
</svg>
