<svg xmlns="http://www.w3.org/2000/svg" width="25" height="25" viewBox="0 0 25 25">
  <defs>
    <style>
      .cls-1 {
        fill: #b9cd1d;
      }

      .cls-2 {
        fill: #fff;
      }
    </style>
  </defs>
  <title>vk</title>
  <g id="Слой_2" data-name="Слой 2">
    <g id="Layer_1" data-name="Layer 1">
      <g>
        <path class="cls-1" d="M20.31,0H4.69A4.69,4.69,0,0,0,0,4.69V20.31A4.69,4.69,0,0,0,4.69,25H20.31A4.69,4.69,0,0,0,25,20.31V4.69A4.69,4.69,0,0,0,20.31,0Z"/>
        <path class="cls-2" d="M20.14,10.9l-.22-.17c-.29-.22-1.75,0-2.14-.34s-.32-.71-.41-1.33a3.77,3.77,0,0,0-.44-1.68A5.46,5.46,0,0,0,13.1,4.69H9.64A5,5,0,0,0,4.69,9.63v5.75a5,5,0,0,0,5,4.93h5.69a5,5,0,0,0,5-4.93l0-4,0-.21ZM9.7,8.72h2.75a.95.95,0,1,1,0,1.89H9.7a.95.95,0,0,1,0-1.89Zm5.58,7.53H9.7a.94.94,0,0,1,0-1.88h5.58a.94.94,0,1,1,0,1.88Z"/>
      </g>
    </g>
  </g>
</svg>
