<svg xmlns="http://www.w3.org/2000/svg" width="25" height="25" viewBox="0 0 25 25">
  <defs>
    <style>
      .cls-1 {
        fill: #b9cd1d;
      }

      .cls-2 {
        fill: #fff;
      }
    </style>
  </defs>
  <title>whatsapp</title>
  <g id="Слой_2" data-name="Слой 2">
    <g id="Layer_1" data-name="Layer 1">
      <g>
        <path class="cls-1" d="M20.31,0H4.69A4.69,4.69,0,0,0,0,4.69V20.31A4.69,4.69,0,0,0,4.69,25H20.31A4.69,4.69,0,0,0,25,20.31V4.69A4.69,4.69,0,0,0,20.31,0Z"/>
        <g>
          <path class="cls-2" d="M17,14.49l-.27-.13c-.49-.24-1-.48-1.47-.7s-.45-.09-.65.17-.47.56-.7.84a.3.3,0,0,1-.37.09l-.34-.15a5.8,5.8,0,0,1-1.66-1.06A6.57,6.57,0,0,1,10.26,12a.36.36,0,0,1,.05-.49l.12-.11a3.18,3.18,0,0,0,.5-.7.48.48,0,0,0,0-.37c-.24-.59-.48-1.18-.73-1.76-.1-.24-.23-.45-.55-.4,0,0-.06,0-.09,0a1,1,0,0,0-.81.18,2.71,2.71,0,0,0-1,2c0,.26.08.53.15.79a4.7,4.7,0,0,0,.81,1.59c.32.42.62.84,1,1.24s.7.7,1.06,1A7.14,7.14,0,0,0,12,15.9a10.74,10.74,0,0,0,2,.82,3,3,0,0,0,1.57.12,2.4,2.4,0,0,0,1-.49,1.41,1.41,0,0,0,.59-.82c0-.19.06-.39.09-.58S17.25,14.61,17,14.49Z"/>
          <path class="cls-2" d="M21.71,10.77A8.36,8.36,0,0,0,21,8.48a9.46,9.46,0,0,0-4.21-4.37,8.36,8.36,0,0,0-2.28-.8,10.35,10.35,0,0,0-1.36-.19,10.29,10.29,0,0,0-1.36,0,7.21,7.21,0,0,0-1,.13,9.38,9.38,0,0,0-7.22,6.8,8.32,8.32,0,0,0-.29,2,11.83,11.83,0,0,0,0,1.33,9.52,9.52,0,0,0,.16,1,9.13,9.13,0,0,0,1,2.57.2.2,0,0,1,0,.13c0,.17-.09.33-.13.49-.2.71-.39,1.41-.58,2.12s-.39,1.42-.59,2.15l1.56-.41L8,20.64a.37.37,0,0,1,.23,0c.26.11.51.24.78.35a7.43,7.43,0,0,0,2,.57,12.57,12.57,0,0,0,1.36.15,8,8,0,0,0,1.1,0,8.08,8.08,0,0,0,.86-.1,9.17,9.17,0,0,0,2.17-.7,9.39,9.39,0,0,0,4.35-4.12,9.17,9.17,0,0,0,1-3.61,7.1,7.1,0,0,0,0-1.22A11.6,11.6,0,0,0,21.71,10.77ZM20.29,13a7.76,7.76,0,0,1-.46,2.07,7.68,7.68,0,0,1-2.48,3.41A7.47,7.47,0,0,1,16,19.4a7,7,0,0,1-2.1.67c-.33.05-.66.08-1,.1a7.21,7.21,0,0,1-.93,0A7.95,7.95,0,0,1,8.41,19a.27.27,0,0,0-.21,0l-2.8.74h0l.27-1c.17-.59.33-1.19.49-1.78a.19.19,0,0,0,0-.14,8.5,8.5,0,0,1-1-2,7.38,7.38,0,0,1-.3-1.47c0-.37-.05-.74,0-1.1a7.7,7.7,0,0,1,.46-2.43A7.55,7.55,0,0,1,6.49,7.55,7.7,7.7,0,0,1,9.62,5.22a8.46,8.46,0,0,1,1.72-.49A7.43,7.43,0,0,1,13,4.66a7.69,7.69,0,0,1,3.28,1,8.19,8.19,0,0,1,1.36,1,7.88,7.88,0,0,1,1.87,2.46,7.31,7.31,0,0,1,.64,2c0,.33.08.66.1,1S20.31,12.71,20.29,13Z"/>
        </g>
      </g>
    </g>
  </g>
</svg>
