<svg xmlns="http://www.w3.org/2000/svg" width="25" height="25" viewBox="0 0 25 25">
  <defs>
    <style>
      .cls-1 {
        fill: #95a700;
      }

      .cls-2 {
        fill: #fff;
      }
    </style>
  </defs>
  <title>youtube</title>
  <g id="Слой_2" data-name="Слой 2">
    <g id="Layer_1" data-name="Layer 1">
      <g>
        <path class="cls-1" d="M20.31,0H4.69A4.69,4.69,0,0,0,0,4.69V20.31A4.69,4.69,0,0,0,4.69,25H20.31A4.69,4.69,0,0,0,25,20.31V4.69A4.69,4.69,0,0,0,20.31,0Z"/>
        <g>
          <path class="cls-2" d="M9.38,6.15V7.72A1.42,1.42,0,0,0,10,8.93a2.62,2.62,0,0,0,1.29.39h1a2.61,2.61,0,0,0,1.18-.37,1.39,1.39,0,0,0,.62-1.2V4.67a1.27,1.27,0,0,0-.64-1.11,2.84,2.84,0,0,0-1.64-.43,3.29,3.29,0,0,0-1.75.4,1.24,1.24,0,0,0-.65,1.1Zm1.56-1.46c0-.15.07-.56.2-.65a1,1,0,0,1,.55-.13,1.08,1.08,0,0,1,.58.13c.15.09.23.5.23.65V7.81a.91.91,0,0,1-.22.63,1,1,0,0,1-.59.15.89.89,0,0,1-.56-.15,1,1,0,0,1-.19-.63Z"/>
          <path class="cls-2" d="M6.25,9.37H7.81V5.86L9.12,2.27l.26-.71H8L7.1,4.69H7L6.1,1.56H4.69L6.25,5.91Z"/>
          <path class="cls-2" d="M16.77,9.38a2.62,2.62,0,0,0,1-.2,4.27,4.27,0,0,0,1-.59v.79h1.56V3.13H18.75V7.81a2.25,2.25,0,0,1-.59.32,1.08,1.08,0,0,1-.46.13.5.5,0,0,1-.33-.09.56.56,0,0,1-.18-.36V3.13H15.63V8.28a1.09,1.09,0,0,0,.28.82A1.22,1.22,0,0,0,16.77,9.38Z"/>
          <path class="cls-2" d="M19.28,16.14a.55.55,0,0,0-.43.15.76.76,0,0,0-.13.51v.57h1.1V16.8a.76.76,0,0,0-.13-.51A.53.53,0,0,0,19.28,16.14Z"/>
          <path class="cls-2" d="M14.71,16.12a.8.8,0,0,0-.26.05,1.28,1.28,0,0,0-.26.17v3.52a.87.87,0,0,0,.3.2.6.6,0,0,0,.3.06.42.42,0,0,0,.33-.12.55.55,0,0,0,.11-.39V16.7a.6.6,0,0,0-.14-.43A.43.43,0,0,0,14.71,16.12Z"/>
          <path class="cls-2" d="M21.75,13.71A2.68,2.68,0,0,0,19,11.06c-2-.08-6.43-.12-6.54-.12S8,11,6,11.06a2.68,2.68,0,0,0-2.71,2.65c-.09,1.16-.13,2.32-.13,3.48s0,2.31.13,3.47A2.68,2.68,0,0,0,6,23.31c2.13.09,4.32.13,6.54.13s4.41,0,6.54-.13a2.68,2.68,0,0,0,2.71-2.65c.09-1.16.13-2.32.13-3.47S21.84,14.87,21.75,13.71Zm-15,7.23H5.35V14.39H3.91V13.28H8.2v1.11H6.75Zm5,0H10.48v-.62a2.44,2.44,0,0,1-.71.52,1.66,1.66,0,0,1-.72.18.81.81,0,0,1-.65-.25A1.11,1.11,0,0,1,8.18,20V15.29H9.42v4.33a.44.44,0,0,0,.08.29.34.34,0,0,0,.26.09.73.73,0,0,0,.34-.12,1.57,1.57,0,0,0,.38-.3V15.29h1.24Zm4.79-1.17a1.29,1.29,0,0,1-.3.92,1.08,1.08,0,0,1-.84.32,1.67,1.67,0,0,1-.65-.12,1.73,1.73,0,0,1-.53-.38v.43H12.94V13.28h1.25v2.47a2,2,0,0,1,.54-.4,1.4,1.4,0,0,1,.57-.13,1.13,1.13,0,0,1,.9.36,1.6,1.6,0,0,1,.31,1Zm4.58-1.52H18.72v1.06a1.13,1.13,0,0,0,.12.62.47.47,0,0,0,.42.17A.57.57,0,0,0,19.7,20a1.14,1.14,0,0,0,.12-.65v-.39h1.27v.42a1.7,1.7,0,0,1-.46,1.31,2,2,0,0,1-1.4.44,1.81,1.81,0,0,1-1.31-.46,1.71,1.71,0,0,1-.48-1.29V16.81a1.53,1.53,0,0,1,.53-1.2,2,2,0,0,1,1.36-.46,1.85,1.85,0,0,1,1.31.43,1.62,1.62,0,0,1,.45,1.23Z"/>
        </g>
      </g>
    </g>
  </g>
</svg>
