<svg xmlns="http://www.w3.org/2000/svg" viewBox="0 0 68.41 52.56">
  <defs>
    <style>
      .cls-1 {
        fill: #483a3b;
      }

      .cls-2 {
        fill: #ac9e96;
      }

      .cls-3 {
        fill: #c5abb0;
      }
    </style>
  </defs>
  <title>logo-head</title>
  <g id="Слой_2" data-name="Слой 2">
    <g id="Слой_1-2" data-name="Слой 1">
      <g>
        <g>
          <path class="cls-1" d="M34,52.56c-17.37,0-29.5-9.79-29.5-23.82A23.31,23.31,0,0,1,12.56,10.8c5.13-4.43,12.35-6.86,20.32-6.86a34.53,34.53,0,0,1,21.31,6.9c5.93,4.66,9.19,11.07,9.19,18.07C63.38,42.84,51.29,52.56,34,52.56ZM32.88,7C18,7,7.57,16,7.57,28.74c0,12.2,10.86,20.73,26.41,20.73,7.43,0,14.14-2,18.87-5.6a18.21,18.21,0,0,0,7.43-15,19.72,19.72,0,0,0-8-15.63A31.41,31.41,0,0,0,32.88,7Z"/>
          <path class="cls-2" d="M53.87,27.14c0,11-11,17.24-21.21,16.8-12.22-.53-21.82-5.77-21-17.24.66-9.28,7.77-15.93,20.33-15.47C44.15,11.67,53.87,16.14,53.87,27.14Z"/>
          <g>
            <polygon class="cls-1" points="22.06 5.97 19.95 3.98 17.38 1.55 17.07 5.3 16.82 8.44 22.06 5.97"/>
            <path class="cls-1" d="M16.82,10a1.54,1.54,0,0,1-.89-.28,1.56,1.56,0,0,1-.66-1.4l.57-6.89a1.55,1.55,0,0,1,2.61-1l4.68,4.43a1.55,1.55,0,0,1-.41,2.52L17.47,9.84A1.47,1.47,0,0,1,16.82,10Zm1.84-5.11-.08,1,.77-.36Z"/>
          </g>
          <g>
            <polygon class="cls-1" points="48 6.81 50.1 4.82 52.66 2.38 52.97 6.14 53.23 9.28 48 6.81"/>
            <path class="cls-1" d="M53.23,10.82a1.51,1.51,0,0,1-.66-.14L47.34,8.21a1.54,1.54,0,0,1-.4-2.52L51.6,1.26a1.55,1.55,0,0,1,2.61,1l.56,6.89a1.57,1.57,0,0,1-.66,1.4A1.59,1.59,0,0,1,53.23,10.82ZM50.71,6.38l.76.36-.08-1Z"/>
          </g>
          <g>
            <g>
              <line class="cls-1" x1="6.57" y1="24.22" x2="1.93" y2="22.11"/>
              <path class="cls-1" d="M6.57,25.11A.94.94,0,0,1,6.21,25L1.57,22.91A.88.88,0,1,1,2.3,21.3l4.64,2.12a.88.88,0,0,1,.44,1.17A.9.9,0,0,1,6.57,25.11Z"/>
            </g>
            <g>
              <line class="cls-1" x1="6.96" y1="27.16" x2="0.88" y2="26.91"/>
              <path class="cls-1" d="M7,28h0L.85,27.79A.88.88,0,0,1,0,26.87.9.9,0,0,1,.92,26L7,26.27a.9.9,0,0,1,.84.92A.88.88,0,0,1,7,28Z"/>
            </g>
            <g>
              <line class="cls-1" x1="6.35" y1="30.9" x2="1.35" y2="31.21"/>
              <path class="cls-1" d="M1.35,32.09a.89.89,0,0,1-.05-1.77l5-.3a.88.88,0,0,1,.94.83.89.89,0,0,1-.83.93l-5,.31Z"/>
            </g>
          </g>
          <g>
            <g>
              <line class="cls-1" x1="61.83" y1="27.32" x2="66.47" y2="25.2"/>
              <path class="cls-1" d="M61.83,28.2a.88.88,0,0,1-.36-1.69l4.64-2.11a.88.88,0,0,1,1.17.44A.89.89,0,0,1,66.84,26L62.2,28.12A1,1,0,0,1,61.83,28.2Z"/>
            </g>
            <g>
              <line class="cls-1" x1="61.45" y1="30.25" x2="67.52" y2="30"/>
              <path class="cls-1" d="M61.45,31.14a.89.89,0,0,1,0-1.77l6.08-.25a.89.89,0,0,1,.07,1.77l-6.08.25Z"/>
            </g>
            <g>
              <line class="cls-1" x1="62.05" y1="33.99" x2="67.05" y2="34.3"/>
              <path class="cls-1" d="M67.05,35.18h0l-5-.3a.89.89,0,0,1,.11-1.77l5,.31a.88.88,0,0,1-.06,1.76Z"/>
            </g>
          </g>
          <g>
            <polygon class="cls-1" points="30 30.9 28.9 28.47 31.33 28.25 30 30.9"/>
            <path class="cls-1" d="M30,31.79h0a.89.89,0,0,1-.79-.52l-1.11-2.43a.92.92,0,0,1,0-.81.9.9,0,0,1,.69-.44l2.43-.22a.88.88,0,0,1,.87,1.27L30.79,31.3A.88.88,0,0,1,30,31.79Z"/>
          </g>
          <path class="cls-1" d="M32.71,34.58c-1.92,0-3.24-1.31-3.58-3.55a.88.88,0,0,1,1.75-.26c.16,1.09.59,1.75,1.27,2a2.79,2.79,0,0,0,2.12-.39.88.88,0,0,1,1.7.33c0,1.09-1.7,1.8-2.94,1.89Z"/>
          <path class="cls-1" d="M27.61,34.14A4.16,4.16,0,0,1,26.53,34c-1.19-.34-2.72-1.37-2.5-2.45a.89.89,0,0,1,1.74,0,2.73,2.73,0,0,0,2,.81c.7-.07,1.25-.63,1.63-1.67a.88.88,0,0,1,1.66.61C30.39,33.13,29.14,34.14,27.61,34.14Zm-1.85-2.25Z"/>
          <path class="cls-1" d="M49.24,27.67a4.52,4.52,0,0,0-4.66-4.12A4.58,4.58,0,0,0,40,27.07a17.69,17.69,0,0,1,3.63-.37A15.17,15.17,0,0,1,49.24,27.67Z"/>
          <path class="cls-1" d="M13.68,25.26A4.52,4.52,0,0,1,19.1,22.2a4.59,4.59,0,0,1,3.74,4.41,17.76,17.76,0,0,0-3.48-1.13A15.26,15.26,0,0,0,13.68,25.26Z"/>
        </g>
        <ellipse class="cls-3" cx="43.49" cy="30.9" rx="4.57" ry="2.36"/>
        <ellipse class="cls-3" cx="18.44" cy="29.13" rx="2.36" ry="4.57" transform="translate(-12.42 44.51) rotate(-84.16)"/>
      </g>
    </g>
  </g>
</svg>
