<svg version="1" xmlns="http://www.w3.org/2000/svg" width="1040" height="1040" viewBox="0 0 780.000000 780.000000"><path d="M193.8 91.4c-4.1 1.3-9.8 5.5-9.8 7.3 0 .7-.4 1.3-.9 1.3-1.3 0-2.3 7-3.6 25-.4 4.7-.8 10.1-1 12-.5 5.2-1.6 18.7-2.1 25.5-.2 3.3-.6 8.7-.9 12-.4 3.3-.6 8.1-.7 10.7 0 4.1-.4 5-3.3 7.3-1.9 1.4-3.8 2.5-4.4 2.5-.6 0-1.1.3-1.1.7 0 .5-1.7 1.9-3.7 3.3-5 3.4-20.2 15.6-23.4 18.9-1.4 1.4-3.9 3.8-5.5 5.2-4.4 3.9-17.6 18-20.4 21.7-1.4 1.8-3.8 4.8-5.3 6.5-10.3 11.8-27.8 41.9-36.1 62.4-4 9.7-10.9 30.2-11.1 32.8-.1 1.3-5.9.9-6.3-.5-.2-.5-.8-1-1.3-1-.4 0-3.4-1.2-6.6-2.7-3.2-1.4-6-2.7-6.3-2.8-.3 0-3.5-1.5-7.2-3.2-8.4-4-12-4.6-15-2.5-5.3 3.6-6.7 8.3-4.1 13.5 1.4 2.8 3.3 3.9 24.5 13.5 2.6 1.2 5.2 2.2 5.7 2.2s1.4.6 2 1.4c.6.7 2.4 1.6 4 1.9 3 .6 6.4 3.4 5.7 4.6-.5.7-1.7 7.9-2.1 12.1-.1 1.4-.3 3.3-.3 4.2-.2 1.7-1.4 1.8-15.9 1.2-8.7-.3-18.7-.7-22.3-.8-7.5-.3-10.8 1-13.1 5.1-1.8 3.3-1.9 6.1-.1 9.4 2.2 4.2 5 5.2 15.7 5.6 5.5.2 13.2.6 17 .7 3.9.2 9.3.4 12 .5l5 .1V434.3l-4.5.3c-2.5.1-9.7.5-16 .9-6.3.4-12.2.7-13 .7-.8 0-3.1.4-5.2.9-2.8.7-4 1.8-5.6 5.1-1.8 3.5-1.9 4.5-.9 7.1.7 1.7 2.5 3.9 3.9 5 2.9 2.1 5.1 2.3 20.6 1.3 24.5-1.6 22.2-1.7 23.1.7.5 1.2 1.1 4.2 1.4 6.7.3 2.5.8 5.2 1.1 6 .3.8.7 2.8 1 4.5.3 1.6.9 4.5 1.5 6.3.5 1.8 1 3.6 1 4 .1.4.8 3.2 1.7 6.2.9 3 1.7 5.9 1.9 6.5.3 1.5 1.5 4.7 3.1 8.3.8 1.8 1.4 3.7 1.4 4.2s1.2 3.5 2.6 6.7c1.5 3.2 2.8 6.3 3 7 .1.6 2.3 5.1 4.9 10 2.6 4.8 5.3 9.8 5.9 11 .6 1.3 1.4 2.3 1.9 2.3.4 0 .7.5.7 1.1 0 2.4 17.6 26.9 25 34.9 12.5 13.5 22.2 22.9 31.3 30.3 3.2 2.6 6.4 5.2 7 5.7.7.6 4.4 3.2 8.2 6 3.9 2.7 7.5 5.4 8.2 6 .7.5 1.5 1 1.8 1 .3 0 3.3 1.8 6.5 4s6.3 4 6.7 4c.5 0 1.5.6 2.1 1.2.7.7 1.6 1.3 2 1.3.4 0 2.7 1.3 5.2 2.7 6.1 3.6 25.4 12.7 36.5 17.1 9.1 3.6 32.3 11.5 36 12.3 1.1.2 6.3 1.5 11.5 2.8 5.2 1.4 10.6 2.7 12 3 1.4.3 3.6.7 5 1 4.8 1.1 12.5 2.5 16 3 1.9.3 4.6.8 6 1 1.4.3 4.8.7 7.5 1.1 2.8.3 6.4.8 8 1.1 1.7.2 5.5.7 8.5.9 3 .3 9.1.8 13.5 1.2 10.4 1 60.2 1 72.5 0 13-1.1 32.3-3.2 37.9-4.2 2.7-.4 8.4-1.4 12.1-2 3.9-.7 19.8-4.2 27-6 1.1-.3 2.8-.7 3.9-.9 8.4-1.9 33.6-10.2 44.1-14.6 4.1-1.7 9.3-3.8 11.5-4.7 2.2-.9 6-2.7 8.4-4 2.4-1.3 5-2.3 5.7-2.3.8 0 1.4-.3 1.4-.8 0-.4 2-1.5 4.5-2.5 2.5-1.1 4.5-2.4 4.5-3 0-.6.3-.8.6-.4.3.3 5.6-2.5 11.7-6.2 31.3-18.9 55.8-40.6 77-68.1 4.9-6.3 6.7-9 6.7-9.8 0-.6.4-1.2.9-1.4 1.4-.5 11.3-17.4 16.8-28.8 6.2-12.7 14.3-33.9 14.7-38.5.1-1.1 10.3-1.1 29.6 0 6.9.4 15 .8 18 1 6.8.4 11-1.3 13.1-5.1 2.3-4.2.8-10.4-3.1-12.7-3-1.8-5-2-27-3.3-6.9-.3-14.1-.8-16-.9-1.9-.2-4.8-.3-6.3-.4-2.8-.1-2.8-.2-2.1-4.9.3-2.6.8-5.6 1-6.7.2-1.1.7-4.3 1-7 .4-2.8.8-5.2 1.1-5.5.2-.2 3.6-.5 7.6-.6 17.9-.5 39.3-1.5 42.1-2 1.7-.3 4.1-1.5 5.3-2.6 3.1-2.9 3.1-10.2.1-13.8-2-2.5-2.1-2.5-17.7-2.3-8.6 0-20.4.3-26.2.5l-10.6.4-.1-9.6-.1-9.7 8.2-3.8c4.5-2.1 13.3-6.2 19.6-9.2 6.2-2.9 11.6-5.3 12-5.3 1.6 0 5.1-4.8 5.7-7.7.8-4.2-1.9-9.1-6-10.8-1.8-.8-3.9-1.3-4.7-1.1-1.8.3-9.6 3.7-24.9 10.9-3.6 1.7-6.7 3.1-7 3.2-.3 0-1.5.6-2.7 1.3-1.3.7-2.3.9-2.4.5 0-.4-.2-1.5-.4-2.3-2-9.2-3.5-17-3.7-19.3-.1-1.5-.5-2.7-.9-2.7-.3 0-.6-.6-.7-1.3 0-.6-.8-3.7-1.7-6.7-.9-3-1.7-6-1.9-6.5-.6-2.4-2.8-9.2-3.6-11-.5-1.1-1.9-4.5-3.1-7.5-2.9-7.5-14.7-31.1-16.5-33.1-.8-.8-1.4-1.9-1.4-2.3 0-1.9-17.1-25.8-24.7-34.5-1.7-2-4.1-4.7-5.3-6.1-7.4-8.6-18.8-19.5-31.7-30.4l-9.3-7.7 2.9-2.5c6-5 6.7-9.6 4.6-32.9-.2-2.8-.7-8.4-1-12.5-.3-4.1-.7-9.8-1-12.5-.3-2.8-.7-7.9-1-11.5-1.3-16.9-1.6-20.8-2.1-24.4-.5-4.3-4.9-12.2-7.4-13-.8-.3-3.1-1.2-5-1.9-5-1.9-11.3-.5-16.4 3.7-2.3 1.9-7.5 6.7-11.7 10.7-4.3 4.1-13.6 13-20.9 19.9-20 18.9-23.6 22.7-25 26-.9 2.3-1.7 2.9-2.9 2.4-4.7-2.1-39.5-13.4-41.1-13.4-1 0-3.1-.5-4.7-1.2-1.5-.6-3.2-1.2-3.8-1.3-.5-.2-3.5-.8-6.5-1.4-3-.6-6.6-1.4-8-1.7-1.4-.3-3.5-.7-4.7-.9-1.2-.2-3.4-.6-5-.9-4.9-1.1-7.7-1.6-12.3-2.2-2.5-.3-5.3-.8-6.3-1-1-.2-4.8-.6-8.5-1-3.6-.3-7.5-.8-8.5-1-5.1-.9-24.3-1.7-44.2-1.7-23.1-.1-32.7.5-53.5 2.9-4.1.5-8.1.8-8.7.7-.7 0-1.3.2-1.3.6 0 .3-1 .6-2.2.7-3.7.1-9.5 1.1-22.3 3.9-15.4 3.4-15 3.3-15 3.5 0 .1-1.3.4-3 .6-2.5.4-3.4-.1-5-2.6-1.1-1.6-2.3-3-2.7-3-.3 0-3.8-3-7.6-6.8-3.9-3.7-12.5-11.9-19.2-18.2-6.7-6.3-15.2-14.3-18.9-17.8-9.9-9.4-14.3-11.2-22.3-8.8z"/></svg>